HIERARCHY
ROOT Hips
{
  OFFSET 0 0 0
  CHANNELS 6 Xposition Yposition Zposition Zrotation Yrotation Xrotation
  JOINT LeftThigh
  {
    OFFSET 8.409438 0 -5.917753
    CHANNELS 3 Zrotation Yrotation Xrotation
    JOINT LeftLeg
    {
      OFFSET 0 0 -42.358652
      CHANNELS 3 Zrotation Yrotation Xrotation
      JOINT LeftFoot
      {
        OFFSET 0 0 -39.357303
        CHANNELS 3 Zrotation Yrotation Xrotation
      }
    }
  }
  JOINT RightThigh
  {
    OFFSET -8.409438 0 -5.917753
    CHANNELS 3 Zrotation Yrotation Xrotation
    JOINT RightLeg
    {
      OFFSET 0 0 -42.358652
      CHANNELS 3 Zrotation Yrotation Xrotation
      JOINT RightFoot
      {
        OFFSET 0 0 -39.357303
        CHANNELS 3 Zrotation Yrotation Xrotation
      }
    }
  }
  JOINT SpineLow
  {
    OFFSET 0 0 4.719101
    CHANNELS 3 Zrotation Yrotation Xrotation
    JOINT SpineMid
    {
      OFFSET 0 0 12.899191
      CHANNELS 3 Zrotation Yrotation Xrotation
      JOINT Chest
      {
        OFFSET 0 0 12.899191
        CHANNELS 3 Zrotation Yrotation Xrotation
        JOINT LeftShoulder
        {
          OFFSET 7.550562 1.41573 9.438202
          CHANNELS 3 Zrotation Yrotation Xrotation
          JOINT LeftArm
          {
            OFFSET 9.155056 0 4.247191
            CHANNELS 3 Zrotation Yrotation Xrotation
            JOINT LeftForearm
            {
              OFFSET 0 0 25.771955
              CHANNELS 3 Zrotation Yrotation Xrotation
              JOINT LeftHand
              {
                OFFSET 0 0 25.197169
                CHANNELS 3 Zrotation Yrotation Xrotation
              }
            }
          }
        }
        JOINT RightShoulder
        {
          OFFSET -7.550562 1.41573 9.438202
          CHANNELS 3 Zrotation Yrotation Xrotation
          JOINT RightArm
          {
            OFFSET -9.155056 0 4.247191
            CHANNELS 3 Zrotation Yrotation Xrotation
            JOINT RightForearm
            {
              OFFSET 0 0 -25.771955
              CHANNELS 3 Zrotation Yrotation Xrotation
              JOINT RightHand
              {
                OFFSET 0 0 -25.197169
                CHANNELS 3 Zrotation Yrotation Xrotation
              }
            }
          }
        }
        JOINT Neck
        {
          OFFSET 0 0 15.101124
          CHANNELS 3 Zrotation Yrotation Xrotation
          JOINT Head
          {
            OFFSET 0 0 11.325843
            CHANNELS 3 Zrotation Yrotation Xrotation
            End Site
            {
              OFFSET 0 0 14.157303
            }
          }
        }
      }
    }
  }
}
MOTION
Frames: 13
Frame Time: 0.0
0.0  89.887642  0.0  9.271973  7.770944  -123.132144  2.928501  0.090856  12.093025  -11.940422  15.923248  30.581955  -6.436958  -0.981219  1.12785  11.084336  -6.545874  -99.969632  11.196554  11.298621  107.908293  2.278299  -0.151026  -0.483362  -3.210448  0.454712  0.809206  -8.760201  1.347526  2.147384  -8.760201  1.347526  2.147384  15.983393  37.551419  46.572651  -178.333882  50.458664  -114.235398  -17.435829  -11.098012  66.50534  82.661465  1.823261  -25.268671  10.821294  16.571882  45.842743  74.562022  31.238787  27.426677  -32.354144  0.494958  -67.162908  108.128678  9.219245  -51.324576  -1.986774  11.917443  26.32626  -2.009669  8.872254  19.711924  
0.0  89.887642  0.0  9.546734  8.068495  -124.148404  3.018247  0.299462  13.540732  -12.694506  16.238036  30.049857  -5.786491  -0.854173  1.01905  10.540181  -6.80098  -100.604968  11.964424  11.618408  110.099357  2.135669  -0.051845  -0.709344  -3.294872  0.538871  0.84314  -8.987731  1.584334  2.226784  -8.987731  1.584334  2.226784  16.627396  37.005808  46.748318  -178.378322  49.758779  -113.518344  -16.802144  -11.609034  66.316543  81.918133  2.065536  -25.066429  11.572955  16.4624  45.854129  71.707854  30.185713  25.706774  -31.85953  3.823663  -68.462703  106.470516  9.246643  -47.634674  -1.312678  12.078469  26.393215  -1.51334  9.022168  19.746908  
0.0  89.887642  0.0  9.80742  8.289923  -124.645346  3.442327  0.355091  14.571124  -13.346522  16.39368  29.529252  -5.329909  -0.853562  0.963544  10.15777  -6.982038  -100.443069  12.56292  11.888326  111.333845  1.945477  -0.131522  -0.769916  -3.332933  0.581242  0.831189  -9.090854  1.699497  2.187446  -9.090855  1.699497  2.187446  17.110631  36.603388  46.431087  -178.880936  48.844706  -113.544559  -15.985207  -11.473081  65.518174  81.670937  2.233652  -24.495973  11.865126  16.556847  46.191109  68.405074  29.454023  23.592815  -31.469268  7.34099  -70.027533  103.958973  9.259147  -43.044786  -0.808648  12.330212  26.293836  -1.1451  9.233056  19.659722  
0.0  89.887642  0.0  10.068595  8.361985  -124.686512  3.901268  0.494874  15.121697  -13.222002  16.143684  29.260752  -5.44267  -0.961054  0.942163  9.521504  -7.120408  -100.142373  12.908361  11.751905  112.372652  1.85229  -0.143723  -0.85781  -3.38989  0.563783  0.794551  -9.248005  1.648606  2.088394  -9.248004  1.648606  2.088393  18.067507  36.498603  46.473463  179.963714  48.605657  -113.824307  -15.700974  -11.763522  64.505419  81.441896  2.535753  -23.944778  12.315552  16.777697  46.594921  66.277414  29.171153  21.929604  -32.092332  10.117216  -71.068706  101.337049  9.328172  -38.782226  -0.254896  12.756972  26.010339  -0.743598  9.577228  19.431355  
0.0  89.887642  0.0  10.217859  8.314982  -124.699925  4.286909  0.601845  15.504527  -12.783465  15.656177  29.243537  -5.738309  -1.066461  0.90241  8.852538  -7.518131  -99.249196  13.547964  11.670589  113.128874  1.897847  -0.207016  -0.935326  -3.542621  0.531743  0.873941  -9.664406  1.577502  2.305556  -9.664407  1.577502  2.305556  18.973846  36.626416  45.878653  178.901975  48.638487  -114.08798  -15.761359  -11.898922  63.582804  81.966896  3.043438  -23.497258  13.089242  16.917264  46.031459  65.29272  29.140885  21.233393  -33.151949  12.153013  -71.624348  98.648045  9.153612  -34.871188  0.579855  13.135506  25.368303  -0.121734  9.8955  18.929008  
0.0  89.887642  0.0  10.231058  8.189361  -124.741234  4.53764  0.659712  15.787342  -12.715786  15.257833  29.170482  -6.090904  -1.160558  0.776574  8.24625  -8.014994  -98.044919  15.092987  12.170717  113.605905  2.664536  -0.759777  -0.579271  -3.664628  0.492355  1.090735  -9.993921  1.506954  2.899513  -9.993921  1.506954  2.899513  18.931256  36.809408  44.348553  178.25706  48.902592  -114.153547  -15.496112  -12.195899  62.511831  82.319815  3.82604  -23.09634  13.517962  16.913034  44.339993  64.316559  29.052191  21.034562  -33.975522  14.114103  -71.916608  96.329586  7.866086  -31.699597  1.124751  13.303276  24.407847  0.299844  10.040862  18.197634  
0.0  89.887642  0.0  10.127925  8.029858  -124.797253  4.471777  0.749637  15.976033  -12.885871  14.982757  28.948931  -5.805525  -1.132215  0.861781  7.664418  -8.12144  -96.927304  15.806483  12.097346  115.007334  2.643836  -0.910783  -0.902933  -3.7109  0.479092  1.302005  -10.115789  1.505015  3.476418  -10.115788  1.505015  3.476418  18.352816  36.721117  42.989513  178.077477  49.339614  -113.953192  -14.907998  -12.75244  61.301059  82.328027  4.909922  -22.598007  13.583529  16.616206  42.831241  63.203283  29.18406  20.885585  -34.704597  16.56467  -71.983566  96.99103  5.758493  -29.16046  1.331176  13.213996  23.686188  0.473939  9.979358  17.655642  
0.0  89.887642  0.0  9.968439  7.825284  -124.754004  3.967634  1.023709  15.907105  -12.484448  14.605049  28.984657  -5.612837  -1.155837  0.899356  7.189236  -8.311708  -95.837456  16.756953  11.973319  116.169485  3.298598  -0.764087  -0.581007  -3.695479  0.489983  1.424036  -10.070022  1.55242  3.807894  -10.070022  1.55242  3.807894  17.707601  36.309234  42.112931  177.538798  50.283166  -113.693339  -13.799797  -12.885536  60.337759  82.151289  6.818883  -23.120774  13.396601  16.319976  41.795174  62.34499  29.224244  20.62855  -35.459598  19.967374  -71.747195  97.133355  3.567692  -30.209493  1.28216  12.974439  23.3893  0.453596  9.796448  17.438441  
0.0  89.887642  0.0  9.776636  7.311815  -124.578433  3.406975  1.15215  15.671778  -12.023458  14.265772  28.899733  -5.369789  -1.11755  0.948315  7.044975  -8.677885  -94.572329  17.827867  12.201894  116.957697  3.590048  -0.689811  -0.505695  -3.662964  0.486069  1.442091  -9.980914  1.542627  3.858548  -9.980915  1.542627  3.858548  17.523701  35.787464  41.735129  177.47047  50.664803  -113.669993  -13.150652  -13.335748  58.880169  82.408434  7.945151  -22.316028  13.450885  16.160747  41.323859  61.78201  29.272729  20.484533  -35.866366  23.527852  -71.119656  95.632119  1.967214  -32.124511  1.247283  12.748616  23.435687  0.435727  9.625638  17.476966  
0.0  89.887642  0.0  9.617831  6.648332  -124.04837  2.990396  1.115631  15.166737  -11.485519  13.935871  28.781934  -5.170937  -1.084927  0.992721  7.076451  -8.788479  -93.135904  18.696072  12.298242  117.337906  3.658744  -0.719609  -0.504068  -3.645562  0.478957  1.370712  -9.935523  1.51156  3.665412  -9.935523  1.51156  3.665412  17.694091  35.27009  41.621477  177.441763  50.976684  -113.676974  -12.44293  -13.839652  57.461652  82.862892  9.455845  -21.26269  13.728565  16.069396  41.153059  63.646385  29.14212  21.580125  -34.97067  26.086091  -70.18669  92.879175  -1.11455  -30.521031  1.262044  12.54157  23.564849  0.452521  9.471116  17.575975  
0.0  89.887642  0.0  9.452755  5.561681  -123.631553  2.970073  0.743655  14.728301  -11.162237  13.759123  28.614327  -4.953338  -1.055675  1.011831  7.410848  -8.736439  -91.39447  19.238792  12.443512  117.570349  3.819874  -0.733376  -0.55771  -3.593571  0.46577  1.308011  -9.795626  1.463525  3.497659  -9.795626  1.463525  3.497659  18.007147  34.800916  41.608795  177.716932  51.25357  -113.682846  -11.665564  -14.295432  56.17326  83.405424  11.120965  -19.984364  14.018081  15.893448  41.153629  63.794086  29.345611  21.732758  -34.872122  28.088126  -69.171162  92.076204  -2.301169  -29.204116  1.306096  12.273842  23.701916  0.493653  9.27217  17.681116  
0.0  89.887642  0.0  9.235469  4.412988  -123.144491  3.190651  0.072355  14.243295  -11.275998  13.723787  28.310295  -4.739751  -0.979044  1.039055  7.802429  -8.353008  -89.759642  19.337039  12.301328  117.83953  3.792636  -0.721749  -0.638313  -3.532935  0.450133  1.226579  -9.632557  1.40592  3.279295  -9.632558  1.405919  3.279295  18.207009  34.388337  41.600572  178.310581  51.343729  -113.650615  -10.995602  -14.715924  55.011371  83.96469  12.391805  -18.415642  14.260468  15.695864  41.302459  64.135214  29.518977  21.869055  -34.938795  30.08011  -68.134585  91.245227  -3.874371  -27.507215  1.296299  11.973897  23.810685  0.496482  9.046838  17.766609  
0.0  89.887642  0.0  9.010303  3.18054  -122.479582  3.432802  -0.595258  13.444213  -11.109537  13.722233  28.237976  -4.488455  -0.935168  1.110265  8.332628  -7.811708  -88.318983  19.240318  12.1423  117.98085  3.865464  -0.684681  -0.664845  -3.407703  0.422257  1.159612  -9.293019  1.31442  3.103406  -9.293019  1.31442  3.103406  17.750589  34.065116  41.258566  179.071911  51.252898  -113.644874  -10.168214  -15.026077  54.122809  85.019885  14.024643  -16.937451  13.773125  15.747259  41.131517  64.589914  29.54597  21.832254  -35.136093  32.668934  -67.211758  89.60185  -6.000523  -26.245728  1.024522  11.587507  23.717102  0.310688  8.745698  17.7069  
